<svg xmlns="http://www.w3.org/2000/svg" xmlns:xlink="http://www.w3.org/1999/xlink" width="500" zoomAndPan="magnify" viewBox="0 0 375 374.999991" height="500" preserveAspectRatio="xMidYMid meet" version="1.0"><defs><clipPath id="8ca5c718b8"><path d="M 0 34.433594 L 375 34.433594 L 375 340.433594 L 0 340.433594 Z M 0 34.433594 " clip-rule="nonzero"/></clipPath></defs><path fill="#f5f6f7" d="M 363.777344 258.328125 C 364.085938 254.097656 363.613281 249.929688 362.472656 245.980469 L 372.3125 240.644531 L 365.035156 227.222656 L 355.195312 232.558594 C 352.507812 229.449219 349.273438 226.777344 345.558594 224.726562 L 348.742188 214.011719 L 334.105469 209.667969 L 330.921875 220.382812 C 326.691406 220.074219 322.523438 220.546875 318.574219 221.6875 L 313.238281 211.847656 L 304.425781 216.625 C 299.242188 213.519531 293.441406 211.835938 287.96875 210.921875 C 288.007812 209.714844 287.050781 206.292969 275.40625 204.929688 C 274.441406 200 272.855469 194.984375 272.855469 194.984375 C 272.855469 194.984375 263.792969 190.410156 262.5625 185.132812 C 266.875 185.835938 273.296875 184.957031 273.648438 178.707031 C 274 172.460938 268.371094 168.855469 261.417969 171.933594 C 260.363281 171.140625 259.921875 162.429688 260.011719 159.792969 C 258.25 159.703125 244.699219 161.816406 232.292969 156.800781 C 230.710938 160.933594 229.390625 171.757812 229.390625 171.757812 C 229.390625 171.757812 224.902344 175.980469 225.34375 178.3125 C 225.785156 180.644531 229.304688 181.875 229.304688 181.875 C 229.304688 181.875 230.84375 194.0625 235.109375 197.40625 C 241.136719 198.375 248.792969 197.714844 250.113281 197.007812 C 250.773438 199.386719 253.367188 207.789062 253.367188 207.789062 C 253.367188 207.789062 250.824219 209.296875 250.125 212.34375 C 237.566406 215.835938 226.015625 223.136719 218.480469 235.8125 C 206.867188 255.34375 193.140625 287.546875 193.140625 287.546875 L 190.851562 286.738281 L 190.851562 211.347656 C 190.851562 207.316406 187.585938 204.046875 183.554688 204.046875 L 125.039062 204.046875 L 125.039062 123.363281 L 0.449219 123.363281 L 0.449219 218.917969 L 37.304688 218.917969 C 38.382812 221.03125 39.800781 223.015625 41.570312 224.785156 C 47.136719 230.351562 54.832031 232.488281 62.039062 231.210938 L 62.039062 300.527344 C 62.039062 303.417969 64.382812 305.761719 67.273438 305.761719 L 115.339844 305.761719 L 103.878906 326.527344 L 93.992188 326.527344 C 92.914062 326.527344 92.042969 327.398438 92.042969 328.476562 L 92.042969 332.597656 L 41.980469 332.597656 L 41.980469 339.636719 L 226.222656 339.636719 L 226.222656 339.203125 L 241.179688 339.8125 L 347.820312 339.8125 L 347.820312 297.300781 L 348.109375 297.226562 L 356.9375 292.441406 L 351.601562 282.601562 C 354.710938 279.914062 357.382812 276.675781 359.433594 272.964844 L 370.148438 276.144531 L 374.492188 261.507812 Z M 45.539062 220.8125 C 44.941406 220.214844 44.417969 219.574219 43.921875 218.917969 L 62.039062 218.917969 L 62.039062 225.460938 C 56.300781 226.824219 50.015625 225.289062 45.539062 220.8125 Z M 134.441406 326.527344 L 124.261719 326.527344 L 135.890625 305.761719 L 136.984375 305.761719 C 157.109375 315.511719 188.734375 330.074219 197.1875 329.605469 C 209.859375 328.902344 223.9375 304.96875 223.9375 304.96875 L 223.9375 332.597656 L 136.390625 332.597656 L 136.390625 328.476562 C 136.386719 327.398438 135.515625 326.527344 134.441406 326.527344 Z M 350.617188 262.382812 C 349.921875 264.722656 348.875 266.855469 347.574219 268.773438 C 346.03125 258.777344 337.386719 251.121094 326.957031 251.121094 L 320.898438 251.121094 L 320.898438 250.988281 C 320.949219 244.726562 320.152344 239.421875 318.71875 234.925781 L 318.925781 234.609375 C 323.808594 232.425781 329.460938 231.90625 334.980469 233.546875 C 347.242188 237.183594 354.253906 250.121094 350.617188 262.382812 Z M 154.398438 156.492188 C 154.398438 165.367188 161.59375 172.5625 170.46875 172.5625 C 179.347656 172.5625 186.542969 165.367188 186.542969 156.492188 C 186.542969 147.617188 179.347656 140.421875 170.46875 140.421875 C 161.59375 140.421875 154.398438 147.617188 154.398438 156.492188 Z M 39.132812 222.5625 L 11.992188 249.703125 C 10.230469 251.464844 10.421875 253.359375 11.707031 254.644531 C 12.992188 255.933594 14.886719 256.121094 16.648438 254.359375 L 43.886719 227.117188 Z M 260.664062 85.929688 C 274.6875 85.929688 286.054688 74.5625 286.054688 60.542969 C 286.054688 46.519531 274.6875 35.152344 260.664062 35.152344 C 246.644531 35.152344 235.277344 46.519531 235.277344 60.542969 C 235.277344 74.5625 246.644531 85.929688 260.664062 85.929688 Z M 111.621094 106.082031 L 175.671875 106.082031 L 203.523438 122.660156 L 199.011719 106.023438 C 208.089844 105.421875 215.269531 97.890625 215.269531 88.660156 C 215.269531 79.039062 207.46875 71.238281 197.847656 71.238281 L 111.621094 71.238281 C 102 71.238281 94.199219 79.039062 94.199219 88.660156 C 94.199219 98.28125 102 106.082031 111.621094 106.082031 Z M 111.621094 106.082031 " fill-opacity="1" fill-rule="nonzero"/><path fill="#8230ff" d="M 166.933594 151.859375 C 166.933594 149.90625 168.519531 148.324219 170.46875 148.324219 C 172.421875 148.324219 174.003906 149.90625 174.003906 151.859375 C 174.003906 153.808594 172.421875 155.390625 170.46875 155.390625 C 168.519531 155.390625 166.933594 153.808594 166.933594 151.859375 Z M 164.296875 164.660156 C 164.296875 160.855469 167.0625 157.773438 170.46875 157.773438 C 173.878906 157.773438 176.644531 160.855469 176.644531 164.660156 Z M 262.089844 43.53125 L 262.089844 58.691406 L 277.785156 58.691406 C 277.785156 58.691406 278.3125 53.816406 273.222656 47.769531 C 268.132812 41.726562 262.089844 43.53125 262.089844 43.53125 Z M 12.0625 249.734375 C 12.0625 249.734375 9.292969 252.175781 11.800781 254.554688 C 14.308594 256.929688 16.351562 254.816406 16.351562 254.816406 L 29.484375 241.222656 L 25.261719 236.605469 Z M 85.796875 233.523438 L 164.71875 233.523438 C 164.71875 233.523438 164.367188 230.882812 161.992188 230.882812 C 159.617188 230.882812 87.378906 230.882812 87.378906 230.882812 C 87.378906 230.882812 85.796875 231.414062 85.796875 233.523438 Z M 326.957031 251.121094 L 262.042969 251.121094 C 250.523438 251.121094 241.179688 260.460938 241.179688 271.984375 L 241.179688 339.8125 L 347.820312 339.8125 L 347.820312 271.984375 C 347.820312 260.460938 338.480469 251.121094 326.957031 251.121094 Z M 326.957031 251.121094 " fill-opacity="1" fill-rule="nonzero"/><g clip-path="url(#8ca5c718b8)"><path fill="#0a0147" d="M 374.621094 261.078125 L 364.25 258 C 364.496094 254.035156 364.078125 250.070312 363.003906 246.203125 L 372.527344 241.039062 C 372.632812 240.980469 372.710938 240.886719 372.742188 240.769531 C 372.777344 240.65625 372.765625 240.535156 372.707031 240.429688 L 365.429688 227.007812 C 365.3125 226.789062 365.039062 226.710938 364.824219 226.828125 L 355.296875 231.992188 C 352.644531 228.980469 349.550781 226.46875 346.089844 224.511719 L 349.171875 214.140625 C 349.242188 213.902344 349.105469 213.652344 348.867188 213.582031 L 334.234375 209.234375 C 334.121094 209.203125 333.996094 209.214844 333.890625 209.269531 C 333.785156 209.328125 333.707031 209.425781 333.675781 209.539062 L 330.59375 219.910156 C 326.636719 219.664062 322.667969 220.082031 318.796875 221.15625 L 313.632812 211.632812 C 313.578125 211.527344 313.480469 211.449219 313.367188 211.417969 C 313.253906 211.382812 313.132812 211.394531 313.027344 211.453125 L 304.398438 216.128906 C 299.347656 213.15625 293.746094 211.496094 288.445312 210.566406 C 288.234375 209.449219 286.71875 205.589844 275.9375 204.503906 C 275.941406 204.457031 275.941406 204.410156 275.925781 204.363281 L 273.207031 194.972656 C 274.394531 192.652344 285.917969 169.996094 286.851562 160.007812 C 288.070312 147.019531 276.25 141.265625 254.011719 135.191406 C 238.722656 131.015625 231.527344 132.46875 228.179688 134.429688 C 226.664062 135.316406 225.644531 136.496094 225.210938 137.859375 C 219.609375 138.652344 217.359375 141.445312 217.617188 143.890625 C 217.875 146.292969 220.550781 148.507812 225.234375 148.507812 C 225.308594 148.507812 225.382812 148.507812 225.453125 148.507812 C 224.40625 149.84375 224.574219 151.109375 224.957031 152 C 225.757812 153.859375 228.128906 155.617188 231.59375 157.046875 C 230.414062 160.703125 229.484375 165.585938 228.828125 171.574219 C 228.121094 172.335938 224.984375 175.804688 224.683594 177.738281 C 224.363281 179.769531 227.738281 181.65625 228.730469 182.164062 C 229.234375 186.875 231.480469 193.308594 233.902344 196.933594 C 235.851562 199.863281 247.320312 198.101562 249.960938 197.65625 L 252.710938 207.945312 C 252.71875 207.972656 252.742188 207.984375 252.753906 208.007812 C 250.113281 209.902344 249.738281 211.824219 249.710938 211.980469 C 249.710938 211.992188 249.714844 212 249.714844 212.011719 C 236 215.945312 224.949219 224.054688 218.09375 235.582031 C 207.285156 253.765625 194.496094 283.261719 192.894531 286.984375 L 191.535156 286.5 C 191.535156 286.5 191.535156 286.496094 191.535156 286.492188 L 191.535156 211 C 191.535156 206.675781 188.019531 203.160156 183.695312 203.160156 L 125.488281 203.160156 L 125.488281 123.363281 C 125.488281 123.117188 125.285156 122.914062 125.039062 122.914062 L 0.449219 122.914062 C 0.199219 122.914062 0 123.117188 0 123.363281 L 0 218.917969 C 0 219.167969 0.199219 219.367188 0.449219 219.367188 L 37.03125 219.367188 C 37.550781 220.359375 38.148438 221.320312 38.816406 222.242188 C 38.816406 222.246094 38.816406 222.246094 38.816406 222.246094 L 11.675781 249.386719 C 9.894531 251.167969 9.78125 253.355469 11.386719 254.964844 C 12.144531 255.71875 13.027344 256.09375 13.9375 256.09375 C 14.964844 256.09375 16.023438 255.621094 16.964844 254.675781 L 44.109375 227.535156 C 48.226562 230.519531 53.09375 232.011719 57.964844 232.011719 C 59.167969 232.011719 60.371094 231.917969 61.5625 231.734375 L 61.5625 298.632812 C 61.5625 302.957031 65.078125 306.472656 69.402344 306.472656 L 114.621094 306.472656 L 103.789062 326.046875 C 103.761719 326.097656 103.742188 326.152344 103.738281 326.210938 L 94.574219 326.210938 C 93.121094 326.210938 91.941406 327.390625 91.941406 328.84375 L 91.941406 332.234375 L 42.15625 332.234375 C 41.90625 332.234375 41.707031 332.4375 41.707031 332.683594 L 41.707031 339.8125 C 41.707031 340.058594 41.90625 340.261719 42.15625 340.261719 L 347.820312 340.261719 C 348.070312 340.261719 348.269531 340.058594 348.269531 339.8125 L 348.269531 297.636719 C 348.289062 297.628906 348.304688 297.628906 348.324219 297.621094 L 357.152344 292.835938 C 357.371094 292.71875 357.449219 292.445312 357.332031 292.226562 L 352.167969 282.703125 C 355.179688 280.046875 357.695312 276.953125 359.648438 273.496094 L 370.023438 276.574219 C 370.136719 276.609375 370.257812 276.597656 370.363281 276.539062 C 370.46875 276.480469 370.546875 276.386719 370.582031 276.273438 L 374.925781 261.636719 C 374.996094 261.398438 374.859375 261.148438 374.621094 261.078125 Z M 250.722656 197.027344 C 250.660156 196.800781 250.433594 196.660156 250.207031 196.699219 C 244.894531 197.652344 235.96875 198.421875 234.648438 196.4375 C 232.257812 192.851562 230.039062 186.433594 229.601562 181.832031 C 229.585938 181.675781 229.488281 181.535156 229.347656 181.46875 C 227.789062 180.714844 225.382812 179.078125 225.570312 177.875 C 225.808594 176.367188 228.546875 173.179688 229.585938 172.082031 C 229.652344 172.011719 229.691406 171.917969 229.703125 171.820312 C 230.351562 165.855469 231.269531 161 232.429688 157.378906 C 238.925781 159.839844 248.808594 161.179688 259.402344 160.058594 C 259.316406 161.914062 259.179688 168.070312 260.78125 172.042969 C 260.828125 172.160156 260.925781 172.253906 261.046875 172.296875 C 261.167969 172.339844 261.300781 172.328125 261.414062 172.269531 C 261.675781 172.128906 267.851562 168.851562 271.914062 173.835938 C 273.691406 176.015625 273.847656 178.972656 272.3125 181.367188 C 270.769531 183.773438 267.257812 185.863281 262.015625 184.5 C 261.835938 184.453125 261.644531 184.523438 261.535156 184.675781 C 261.425781 184.828125 261.425781 185.03125 261.527344 185.183594 L 263.417969 187.992188 C 265.613281 191.265625 268.703125 193.769531 272.351562 195.253906 L 275.007812 204.421875 C 273.425781 204.292969 271.667969 204.214844 269.6875 204.214844 C 261.226562 204.214844 256.34375 205.777344 253.523438 207.503906 Z M 192.992188 287.972656 C 193.210938 288.050781 193.460938 287.941406 193.554688 287.722656 C 193.691406 287.402344 207.402344 255.324219 218.867188 236.042969 C 232.484375 213.136719 257.339844 210.023438 270.914062 210.21875 L 272.082031 210.230469 C 279.316406 210.308594 293.050781 210.460938 304.042969 217.019531 C 304.070312 217.039062 304.101562 217.054688 304.132812 217.070312 C 313.289062 222.570312 320.515625 232.546875 320.445312 250.671875 L 262.042969 250.671875 C 250.292969 250.671875 240.730469 260.234375 240.730469 271.984375 L 240.730469 339.363281 L 224.296875 339.363281 C 224.347656 339.289062 224.382812 339.203125 224.382812 339.109375 L 224.382812 304.96875 C 224.382812 304.765625 224.25 304.589844 224.054688 304.535156 C 223.859375 304.484375 223.652344 304.566406 223.546875 304.742188 C 223.410156 304.980469 209.449219 328.476562 197.164062 329.15625 C 197.035156 329.164062 196.898438 329.167969 196.757812 329.167969 C 183.984375 329.167969 125.769531 299.773438 120.363281 297.027344 L 135.292969 267.515625 Z M 321.34375 250.671875 C 321.367188 244.589844 320.589844 239.402344 319.203125 234.984375 C 324.132812 232.804688 329.6875 232.441406 334.851562 233.976562 C 346.875 237.546875 353.753906 250.230469 350.183594 262.253906 C 349.625 264.144531 348.828125 265.933594 347.8125 267.601562 C 345.785156 257.945312 337.207031 250.671875 326.957031 250.671875 Z M 65.496094 230.785156 C 68.851562 229.660156 72.007812 227.769531 74.675781 225.101562 C 76.40625 223.367188 77.8125 221.429688 78.894531 219.367188 L 125.039062 219.367188 C 125.285156 219.367188 125.488281 219.167969 125.488281 218.917969 L 125.488281 207.410156 L 182.601562 207.410156 C 185.261719 207.410156 187.425781 209.574219 187.425781 212.234375 L 187.425781 285.046875 L 175.640625 280.867188 L 175.640625 247.820312 C 175.640625 247.574219 175.4375 247.371094 175.191406 247.371094 L 165.167969 247.371094 L 165.167969 233.613281 C 165.167969 231.8125 163.707031 230.347656 161.90625 230.347656 L 88.347656 230.347656 C 86.546875 230.347656 85.082031 231.8125 85.082031 233.613281 L 85.082031 300.121094 L 68.691406 300.121094 C 66.929688 300.121094 65.496094 298.6875 65.496094 296.925781 Z M 174.742188 248.269531 L 174.742188 280.546875 L 140.796875 268.511719 L 140.796875 248.269531 Z M 164.226562 233.164062 L 86.027344 233.164062 C 86.238281 232.074219 87.195312 231.246094 88.347656 231.246094 L 161.90625 231.246094 C 163.054688 231.246094 164.015625 232.074219 164.226562 233.164062 Z M 85.980469 234.0625 L 164.273438 234.0625 L 164.273438 247.371094 L 140.347656 247.371094 C 140.101562 247.371094 139.898438 247.574219 139.898438 247.820312 L 139.898438 268.195312 L 135.21875 266.535156 C 135.007812 266.460938 134.769531 266.554688 134.667969 266.757812 L 134.136719 267.808594 C 133.109375 266.675781 124.042969 256.78125 117.003906 251.484375 C 111.457031 247.304688 102.859375 245.8125 96.628906 245.296875 C 92.210938 244.929688 90.425781 246.503906 90.230469 247.960938 C 90.0625 249.25 91.117188 250.863281 93.84375 251.359375 C 94.386719 251.460938 95.160156 251.566406 96.078125 251.695312 C 98.886719 252.089844 103.414062 252.726562 106.574219 253.953125 C 105.015625 253.621094 103.03125 253.292969 100.792969 253.136719 C 99.460938 253.046875 98.359375 253.53125 97.699219 254.515625 C 97.042969 255.496094 96.9375 256.839844 97.441406 257.863281 C 97.628906 258.242188 97.894531 258.546875 98.210938 258.773438 C 97.640625 259.269531 97.175781 260 97.082031 260.824219 C 97.007812 261.484375 97.136719 262.648438 98.585938 263.648438 C 98.175781 264.140625 97.414062 265.375 97.480469 267.71875 C 97.542969 269.855469 99.019531 272.511719 105.679688 273.039062 C 105.695312 273.039062 105.707031 273.039062 105.722656 273.039062 C 105.761719 273.039062 105.800781 273.035156 105.839844 273.027344 C 106.335938 272.917969 106.730469 272.652344 106.980469 272.253906 C 107.292969 271.75 107.304688 271.167969 107.269531 270.804688 C 108.097656 271.074219 108.996094 271.40625 110.015625 271.835938 C 110.820312 273.246094 116.390625 282.4375 125.765625 284.355469 L 119.359375 297.023438 C 119.246094 297.246094 119.335938 297.515625 119.554688 297.625 C 119.957031 297.832031 121.734375 298.738281 124.496094 300.121094 L 85.980469 300.121094 Z M 126.261719 283.371094 C 116.640625 281.578125 110.925781 271.257812 110.871094 271.152344 C 110.8125 271.046875 110.71875 270.960938 110.605469 270.914062 C 106.714844 269.261719 104.410156 268.871094 101.796875 268.527344 C 101.507812 268.484375 101.230469 268.699219 101.195312 268.992188 C 101.15625 269.289062 101.363281 269.558594 101.660156 269.597656 C 103.140625 269.789062 104.527344 270.007812 106.175781 270.472656 C 106.15625 270.550781 106.152344 270.632812 106.171875 270.714844 C 106.207031 270.878906 106.261719 271.375 106.0625 271.683594 C 105.980469 271.816406 105.855469 271.90625 105.679688 271.957031 C 102.457031 271.691406 98.648438 270.730469 98.558594 267.6875 C 98.484375 265.171875 99.488281 264.253906 99.515625 264.226562 C 99.542969 264.207031 99.554688 264.175781 99.578125 264.152344 C 104.707031 264.855469 108.003906 265.992188 108.035156 266.003906 C 108.09375 266.023438 108.15625 266.035156 108.214844 266.035156 C 108.4375 266.035156 108.644531 265.894531 108.722656 265.675781 C 108.820312 265.390625 108.671875 265.085938 108.390625 264.988281 C 108.253906 264.9375 104.972656 263.804688 99.734375 263.085938 C 98.929688 262.667969 98.039062 261.96875 98.152344 260.945312 C 98.25 260.089844 99 259.386719 99.53125 259.222656 C 105.597656 259.625 108.101562 260.691406 108.125 260.699219 C 108.195312 260.730469 108.269531 260.746094 108.339844 260.746094 C 108.546875 260.746094 108.746094 260.625 108.835938 260.421875 C 108.953125 260.152344 108.832031 259.835938 108.558594 259.714844 C 108.453125 259.667969 105.867188 258.550781 99.5 258.140625 C 98.886719 258.101562 98.566406 257.707031 98.410156 257.386719 C 98.074219 256.710938 98.152344 255.777344 98.59375 255.117188 C 98.902344 254.65625 99.527344 254.125 100.714844 254.210938 C 105.855469 254.570312 109.734375 255.902344 109.773438 255.917969 C 109.792969 255.925781 109.8125 255.921875 109.835938 255.925781 C 109.875 255.933594 109.910156 255.941406 109.953125 255.941406 C 109.984375 255.941406 110.015625 255.933594 110.046875 255.929688 C 110.082031 255.921875 110.117188 255.917969 110.148438 255.902344 C 110.183594 255.886719 110.214844 255.867188 110.246094 255.847656 C 110.265625 255.835938 110.285156 255.828125 110.304688 255.816406 C 110.3125 255.808594 110.316406 255.796875 110.324219 255.789062 C 110.347656 255.765625 110.367188 255.734375 110.386719 255.707031 C 110.410156 255.675781 110.429688 255.644531 110.441406 255.613281 C 110.445312 255.601562 110.453125 255.59375 110.457031 255.585938 C 110.464844 255.5625 110.460938 255.542969 110.46875 255.519531 C 110.476562 255.484375 110.484375 255.445312 110.484375 255.410156 C 110.484375 255.375 110.476562 255.339844 110.46875 255.308594 C 110.464844 255.273438 110.457031 255.242188 110.445312 255.210938 C 110.429688 255.175781 110.410156 255.144531 110.390625 255.113281 C 110.375 255.09375 110.371094 255.070312 110.355469 255.054688 C 110.34375 255.039062 110.328125 255.027344 110.316406 255.015625 C 110.3125 255.011719 110.308594 255.007812 110.308594 255.007812 C 107.832031 252.253906 100.574219 251.238281 96.226562 250.628906 C 95.328125 250.503906 94.570312 250.398438 94.035156 250.300781 C 92.09375 249.945312 91.191406 248.925781 91.300781 248.105469 C 91.4375 247.070312 93.136719 246.089844 96.539062 246.371094 C 102.628906 246.875 111.011719 248.320312 116.355469 252.34375 C 123.707031 257.878906 133.339844 268.53125 133.4375 268.640625 C 133.496094 268.707031 133.570312 268.75 133.644531 268.777344 Z M 183.695312 204.058594 C 187.523438 204.058594 190.636719 207.171875 190.636719 211 L 190.636719 286.183594 L 188.238281 285.332031 C 188.289062 285.261719 188.324219 285.179688 188.324219 285.085938 L 188.324219 212.234375 C 188.324219 209.078125 185.757812 206.511719 182.601562 206.511719 L 125.488281 206.511719 L 125.488281 204.058594 Z M 0.898438 218.46875 L 0.898438 123.8125 L 124.589844 123.8125 L 124.589844 218.46875 L 79.339844 218.46875 C 80.652344 215.671875 81.390625 212.671875 81.550781 209.644531 L 113.953125 209.644531 C 114.199219 209.644531 114.402344 209.445312 114.402344 209.195312 L 114.402344 201.804688 C 114.402344 201.558594 114.199219 201.355469 113.953125 201.355469 L 80.519531 201.355469 C 79.671875 198.621094 78.316406 196.011719 76.453125 193.675781 L 113.953125 193.675781 C 114.199219 193.675781 114.402344 193.472656 114.402344 193.226562 L 114.402344 179.148438 C 114.402344 178.898438 114.199219 178.699219 113.953125 178.699219 L 36.347656 178.699219 C 36.097656 178.699219 35.898438 178.898438 35.898438 179.148438 L 35.898438 193.226562 C 35.898438 193.472656 36.097656 193.675781 36.347656 193.675781 L 39.472656 193.675781 C 37.609375 196.011719 36.257812 198.621094 35.410156 201.355469 L 11.898438 201.355469 C 11.652344 201.355469 11.449219 201.558594 11.449219 201.804688 L 11.449219 209.195312 C 11.449219 209.445312 11.652344 209.644531 11.898438 209.644531 L 34.375 209.644531 C 34.535156 212.671875 35.273438 215.671875 36.589844 218.46875 Z M 80.777344 202.253906 L 113.503906 202.253906 L 113.503906 208.746094 L 81.578125 208.746094 C 81.609375 206.5625 81.34375 204.378906 80.777344 202.253906 Z M 40.226562 192.777344 L 36.796875 192.777344 L 36.796875 179.597656 L 113.503906 179.597656 L 113.503906 192.777344 L 75.703125 192.777344 C 75.371094 192.402344 75.03125 192.035156 74.675781 191.675781 C 65.460938 182.460938 50.464844 182.460938 41.25 191.675781 C 40.894531 192.035156 40.554688 192.402344 40.226562 192.777344 Z M 34.347656 208.746094 L 12.347656 208.746094 L 12.347656 202.253906 L 35.152344 202.253906 C 34.585938 204.378906 34.316406 206.5625 34.347656 208.746094 Z M 16.332031 254.042969 C 14.890625 255.476562 13.28125 255.585938 12.023438 254.328125 C 10.765625 253.070312 10.871094 251.460938 12.3125 250.019531 L 25.027344 237.304688 L 29.046875 241.324219 Z M 39.367188 222.964844 C 39.945312 223.703125 40.570312 224.421875 41.25 225.101562 C 41.933594 225.78125 42.648438 226.40625 43.386719 226.984375 L 29.683594 240.6875 L 25.664062 236.667969 M 41.886719 224.464844 C 33.023438 215.601562 33.023438 201.175781 41.886719 192.3125 C 46.320312 187.878906 52.140625 185.664062 57.964844 185.664062 C 63.785156 185.664062 69.609375 187.878906 74.039062 192.3125 C 82.90625 201.175781 82.90625 215.601562 74.039062 224.464844 C 71.410156 227.097656 68.285156 228.941406 64.964844 230.011719 C 64.917969 230.019531 64.878906 230.03125 64.839844 230.050781 C 57.003906 232.523438 48.085938 230.667969 41.886719 224.464844 Z M 62.460938 298.632812 L 62.460938 231.582031 C 63.179688 231.445312 63.890625 231.273438 64.597656 231.066406 L 64.597656 296.925781 C 64.597656 299.183594 66.433594 301.019531 68.691406 301.019531 L 125.699219 301.019531 C 125.824219 301.019531 125.9375 300.964844 126.019531 300.882812 C 128.621094 302.179688 131.871094 303.785156 135.550781 305.578125 L 69.402344 305.578125 C 65.574219 305.578125 62.460938 302.460938 62.460938 298.632812 Z M 115.550781 306.648438 L 134.9375 306.648438 L 124.203125 326.046875 C 124.171875 326.097656 124.15625 326.152344 124.152344 326.210938 L 104.726562 326.210938 Z M 92.835938 328.84375 C 92.835938 327.886719 93.617188 327.105469 94.574219 327.105469 L 134.203125 327.105469 C 135.160156 327.105469 135.941406 327.886719 135.941406 328.84375 L 135.941406 332.191406 L 92.839844 332.191406 L 92.839844 328.84375 Z M 134.203125 326.210938 L 125.136719 326.210938 L 136.0625 306.472656 L 137.402344 306.472656 C 157.261719 316.089844 187.683594 330.066406 196.78125 330.066406 C 196.929688 330.066406 197.074219 330.0625 197.210938 330.054688 C 208.347656 329.433594 220.246094 311.726562 223.488281 306.5625 L 223.488281 332.234375 L 136.835938 332.234375 L 136.835938 328.84375 C 136.835938 327.390625 135.65625 326.210938 134.203125 326.210938 Z M 42.605469 333.132812 L 223.484375 333.132812 L 223.484375 339.109375 C 223.484375 339.203125 223.523438 339.289062 223.574219 339.363281 L 42.605469 339.363281 Z M 347.371094 339.363281 L 241.628906 339.363281 L 241.628906 271.984375 C 241.628906 260.730469 250.789062 251.570312 262.042969 251.570312 L 326.957031 251.570312 C 337.085938 251.570312 345.515625 258.988281 347.101562 268.675781 C 346.996094 268.828125 346.902344 268.988281 346.792969 269.140625 C 346.648438 269.339844 346.691406 269.621094 346.890625 269.765625 C 346.972656 269.824219 347.0625 269.851562 347.15625 269.851562 C 347.191406 269.851562 347.222656 269.835938 347.257812 269.828125 C 347.332031 270.539062 347.371094 271.257812 347.371094 271.984375 Z M 369.847656 275.585938 L 359.558594 272.53125 C 359.351562 272.472656 359.140625 272.5625 359.039062 272.746094 C 357.054688 276.34375 354.453125 279.542969 351.308594 282.261719 C 351.148438 282.398438 351.109375 282.628906 351.207031 282.816406 L 356.328125 292.261719 L 348.269531 296.628906 L 348.269531 271.984375 C 348.269531 270.929688 348.191406 269.894531 348.042969 268.878906 C 349.347656 266.921875 350.371094 264.792969 351.046875 262.511719 C 354.753906 250.011719 347.605469 236.824219 335.105469 233.113281 C 329.765625 231.53125 324.03125 231.894531 318.925781 234.128906 C 316.113281 225.835938 311.113281 220.328125 305.289062 216.667969 L 313.058594 212.457031 L 318.179688 221.902344 C 318.28125 222.085938 318.496094 222.179688 318.699219 222.117188 C 322.691406 220.96875 326.792969 220.53125 330.890625 220.832031 C 331.097656 220.84375 331.292969 220.714844 331.351562 220.511719 L 334.40625 210.226562 L 348.183594 214.3125 L 345.128906 224.601562 C 345.070312 224.804688 345.15625 225.019531 345.339844 225.121094 C 348.9375 227.109375 352.140625 229.707031 354.855469 232.851562 C 354.996094 233.011719 355.222656 233.054688 355.410156 232.953125 L 364.855469 227.832031 L 371.703125 240.464844 L 362.257812 245.585938 C 362.074219 245.683594 361.984375 245.902344 362.042969 246.101562 C 363.195312 250.097656 363.625 254.199219 363.328125 258.296875 C 363.3125 258.507812 363.445312 258.699219 363.648438 258.757812 L 373.933594 261.8125 Z M 166.484375 151.855469 C 166.484375 154.054688 168.273438 155.839844 170.46875 155.839844 C 172.667969 155.839844 174.453125 154.054688 174.453125 151.855469 C 174.453125 149.660156 172.667969 147.875 170.46875 147.875 C 168.273438 147.875 166.484375 149.660156 166.484375 151.855469 Z M 173.554688 151.855469 C 173.554688 153.558594 172.171875 154.941406 170.46875 154.941406 C 168.769531 154.941406 167.382812 153.558594 167.382812 151.855469 C 167.382812 150.15625 168.769531 148.773438 170.46875 148.773438 C 172.171875 148.773438 173.554688 150.15625 173.554688 151.855469 Z M 163.847656 164.660156 C 163.847656 164.910156 164.050781 165.109375 164.296875 165.109375 L 176.644531 165.109375 C 176.890625 165.109375 177.09375 164.910156 177.09375 164.660156 C 177.09375 160.617188 174.121094 157.324219 170.46875 157.324219 C 166.816406 157.324219 163.847656 160.617188 163.847656 164.660156 Z M 176.179688 164.210938 L 164.761719 164.210938 C 164.964844 160.871094 167.449219 158.222656 170.46875 158.222656 C 173.492188 158.222656 175.976562 160.871094 176.179688 164.210938 Z M 153.949219 156.492188 C 153.949219 165.601562 161.359375 173.011719 170.46875 173.011719 C 179.578125 173.011719 186.988281 165.601562 186.988281 156.492188 C 186.988281 147.382812 179.578125 139.972656 170.46875 139.972656 C 161.359375 139.972656 153.949219 147.382812 153.949219 156.492188 Z M 186.089844 156.492188 C 186.089844 165.105469 179.085938 172.113281 170.46875 172.113281 C 161.855469 172.113281 154.847656 165.105469 154.847656 156.492188 C 154.847656 147.878906 161.855469 140.867188 170.46875 140.867188 C 179.085938 140.867188 186.089844 147.878906 186.089844 156.492188 Z M 18.925781 148.625 C 23.054688 148.625 26.414062 145.265625 26.414062 141.136719 C 26.414062 137.007812 23.054688 133.648438 18.925781 133.648438 C 14.796875 133.648438 11.4375 137.007812 11.4375 141.136719 C 11.4375 145.265625 14.796875 148.625 18.925781 148.625 Z M 36.347656 148.625 L 113.953125 148.625 C 114.199219 148.625 114.402344 148.425781 114.402344 148.175781 L 114.402344 134.097656 C 114.402344 133.851562 114.199219 133.648438 113.953125 133.648438 L 36.347656 133.648438 C 36.097656 133.648438 35.898438 133.851562 35.898438 134.097656 L 35.898438 148.175781 C 35.898438 148.425781 36.101562 148.625 36.347656 148.625 Z M 36.796875 134.546875 L 113.503906 134.546875 L 113.503906 147.726562 L 36.796875 147.726562 Z M 18.925781 171.152344 C 23.054688 171.152344 26.414062 167.792969 26.414062 163.664062 C 26.414062 159.535156 23.054688 156.175781 18.925781 156.175781 C 14.796875 156.175781 11.4375 159.535156 11.4375 163.664062 C 11.4375 167.792969 14.796875 171.152344 18.925781 171.152344 Z M 36.347656 171.152344 L 113.953125 171.152344 C 114.199219 171.152344 114.402344 170.949219 114.402344 170.703125 L 114.402344 156.625 C 114.402344 156.375 114.199219 156.175781 113.953125 156.175781 L 36.347656 156.175781 C 36.097656 156.175781 35.898438 156.375 35.898438 156.625 L 35.898438 170.703125 C 35.898438 170.949219 36.101562 171.152344 36.347656 171.152344 Z M 36.796875 157.074219 L 113.503906 157.074219 L 113.503906 170.253906 L 36.796875 170.253906 Z M 18.925781 193.675781 C 23.054688 193.675781 26.414062 190.316406 26.414062 186.1875 C 26.414062 182.058594 23.054688 178.699219 18.925781 178.699219 C 14.796875 178.699219 11.4375 182.058594 11.4375 186.1875 C 11.4375 190.316406 14.796875 193.675781 18.925781 193.675781 Z M 177.042969 216.605469 C 177.128906 216.691406 177.246094 216.734375 177.359375 216.734375 C 177.476562 216.734375 177.589844 216.691406 177.675781 216.605469 L 179.039062 215.242188 L 180.402344 216.605469 C 180.492188 216.691406 180.605469 216.734375 180.71875 216.734375 C 180.835938 216.734375 180.949219 216.691406 181.039062 216.605469 C 181.214844 216.429688 181.214844 216.144531 181.039062 215.96875 L 179.675781 214.605469 L 181.039062 213.246094 C 181.214844 213.070312 181.214844 212.785156 181.039062 212.609375 C 180.863281 212.433594 180.578125 212.433594 180.402344 212.609375 L 179.039062 213.972656 L 177.675781 212.609375 C 177.503906 212.433594 177.21875 212.433594 177.042969 212.609375 C 176.867188 212.785156 176.867188 213.070312 177.042969 213.246094 L 178.40625 214.605469 L 177.042969 215.96875 C 176.867188 216.144531 176.867188 216.429688 177.042969 216.605469 Z M 111.621094 106.53125 L 175.546875 106.53125 L 203.292969 123.046875 C 203.363281 123.089844 203.445312 123.109375 203.523438 123.109375 C 203.617188 123.109375 203.714844 123.078125 203.792969 123.019531 C 203.941406 122.90625 204.003906 122.71875 203.957031 122.542969 L 199.589844 106.425781 C 208.675781 105.546875 215.71875 97.84375 215.71875 88.660156 C 215.71875 78.808594 207.699219 70.789062 197.847656 70.789062 L 111.621094 70.789062 C 101.765625 70.789062 93.75 78.808594 93.75 88.660156 C 93.75 98.515625 101.765625 106.53125 111.621094 106.53125 Z M 111.621094 71.6875 L 197.847656 71.6875 C 207.207031 71.6875 214.820312 79.300781 214.820312 88.660156 C 214.820312 97.558594 207.863281 104.988281 198.984375 105.574219 C 198.847656 105.585938 198.726562 105.652344 198.648438 105.761719 C 198.570312 105.871094 198.546875 106.011719 198.582031 106.140625 L 202.800781 121.707031 L 175.902344 105.695312 C 175.832031 105.65625 175.753906 105.632812 175.671875 105.632812 L 111.621094 105.632812 C 102.261719 105.632812 94.648438 98.019531 94.648438 88.660156 C 94.648438 79.300781 102.261719 71.6875 111.621094 71.6875 Z M 262.234375 59.421875 L 277.992188 59.421875 C 278.242188 59.421875 278.441406 59.222656 278.441406 58.972656 C 278.441406 50.035156 271.171875 42.765625 262.234375 42.765625 C 261.984375 42.765625 261.785156 42.964844 261.785156 43.214844 L 261.785156 58.972656 C 261.785156 59.222656 261.984375 59.421875 262.234375 59.421875 Z M 262.683594 43.667969 C 270.769531 43.902344 277.304688 50.4375 277.539062 58.523438 L 262.683594 58.523438 Z M 259.097656 78.316406 C 268.03125 78.316406 275.304688 71.046875 275.304688 62.109375 C 275.304688 61.863281 275.101562 61.660156 274.855469 61.660156 L 259.546875 61.660156 L 259.546875 46.351562 C 259.546875 46.101562 259.34375 45.902344 259.097656 45.902344 C 250.160156 45.902344 242.890625 53.171875 242.890625 62.109375 C 242.886719 71.046875 250.160156 78.316406 259.097656 78.316406 Z M 260.664062 86.378906 C 274.914062 86.378906 286.503906 74.789062 286.503906 60.542969 C 286.503906 46.292969 274.914062 34.703125 260.664062 34.703125 C 246.417969 34.703125 234.828125 46.292969 234.828125 60.542969 C 234.828125 74.789062 246.417969 86.378906 260.664062 86.378906 Z M 260.664062 35.601562 C 274.417969 35.601562 285.605469 46.789062 285.605469 60.542969 C 285.605469 74.292969 274.417969 85.480469 260.664062 85.480469 C 246.914062 85.480469 235.726562 74.292969 235.726562 60.542969 C 235.726562 46.789062 246.914062 35.601562 260.664062 35.601562 Z M 70.699219 195.65625 C 63.675781 188.632812 52.25 188.632812 45.230469 195.65625 C 38.207031 202.675781 38.207031 214.101562 45.230469 221.121094 C 48.738281 224.632812 53.351562 226.386719 57.964844 226.386719 C 62.574219 226.386719 67.1875 224.632812 70.699219 221.121094 C 77.71875 214.101562 77.71875 202.675781 70.699219 195.65625 Z M 64.597656 219.367188 L 64.597656 224.152344 C 63.898438 224.445312 63.183594 224.683594 62.460938 224.878906 L 62.460938 219.367188 Z M 44.167969 218.46875 C 44.164062 218.46875 44.164062 218.46875 44.164062 218.46875 C 42.234375 215.832031 41.148438 212.769531 40.921875 209.644531 L 75.007812 209.644531 C 74.777344 212.765625 73.695312 215.828125 71.765625 218.46875 Z M 64.921875 192.777344 L 51.003906 192.777344 C 53.214844 191.796875 55.585938 191.285156 57.964844 191.285156 C 60.339844 191.285156 62.710938 191.796875 64.921875 192.777344 Z M 45.863281 196.289062 C 46.90625 195.25 48.054688 194.390625 49.265625 193.675781 L 66.617188 193.675781 C 66.628906 193.675781 66.636719 193.667969 66.648438 193.667969 C 67.863281 194.386719 69.019531 195.246094 70.0625 196.289062 C 71.566406 197.796875 72.714844 199.519531 73.542969 201.355469 L 42.386719 201.355469 C 43.210938 199.519531 44.359375 197.796875 45.863281 196.289062 Z M 42.003906 202.253906 L 73.921875 202.253906 C 74.71875 204.339844 75.09375 206.542969 75.046875 208.746094 L 40.878906 208.746094 C 40.832031 206.542969 41.207031 204.339844 42.003906 202.253906 Z M 45.863281 220.488281 C 45.503906 220.128906 45.171875 219.75 44.851562 219.367188 L 61.5625 219.367188 L 61.5625 225.097656 C 56.074219 226.269531 50.121094 224.742188 45.863281 220.488281 Z M 65.496094 223.734375 L 65.496094 219.367188 L 71.074219 219.367188 C 70.753906 219.75 70.421875 220.128906 70.0625 220.488281 C 68.695312 221.855469 67.144531 222.929688 65.496094 223.734375 Z M 111.480469 95.535156 C 111.796875 95.570312 117.230469 96.140625 121.367188 93.988281 C 122.503906 94.816406 124.109375 95.34375 126.109375 95.535156 C 128.410156 95.757812 131.0625 95.261719 133.328125 94.003906 C 134.769531 95.054688 136.851562 95.640625 139.21875 95.640625 C 139.453125 95.640625 139.691406 95.632812 139.933594 95.621094 C 141.730469 95.535156 143.339844 95.078125 144.671875 94.3125 C 145.125 94.546875 145.628906 94.742188 146.171875 94.894531 C 149.007812 95.675781 153.40625 94.996094 154.832031 92.953125 C 154.972656 92.75 154.921875 92.46875 154.71875 92.328125 C 154.515625 92.1875 154.238281 92.238281 154.09375 92.441406 C 153.003906 94.011719 149.195312 94.796875 146.410156 94.027344 C 146.109375 93.945312 145.820312 93.847656 145.546875 93.734375 C 146.734375 92.835938 147.632812 91.652344 148.148438 90.234375 C 149.136719 87.523438 148.5 86.214844 148.035156 85.675781 C 147.53125 85.09375 146.765625 84.859375 145.945312 85.027344 C 144.71875 85.28125 143.105469 86.507812 142.257812 89.195312 C 141.910156 90.289062 141.996094 91.363281 142.507812 92.300781 C 142.804688 92.851562 143.242188 93.34375 143.792969 93.761719 C 142.667969 94.320312 141.347656 94.652344 139.890625 94.726562 C 137.609375 94.828125 135.574219 94.386719 134.167969 93.492188 C 135.671875 92.488281 136.941406 91.109375 137.742188 89.355469 C 139.1875 86.175781 139.402344 83.609375 138.332031 82.316406 C 137.792969 81.664062 136.964844 81.414062 136.0625 81.632812 C 134.472656 82.019531 132.285156 83.988281 131.351562 88.261719 C 130.929688 90.195312 131.265625 91.824219 132.351562 93.105469 C 132.433594 93.199219 132.515625 93.292969 132.605469 93.382812 C 130.570312 94.429688 128.242188 94.84375 126.195312 94.640625 C 124.550781 94.484375 123.210938 94.089844 122.226562 93.484375 C 123.535156 92.632812 124.644531 91.457031 125.324219 89.828125 C 126.222656 87.679688 126.25 85.863281 125.398438 84.851562 C 124.886719 84.242188 124.109375 84 123.277344 84.191406 C 122.015625 84.476562 120.390625 85.839844 119.625 88.8125 C 119.234375 90.328125 119.441406 91.722656 120.222656 92.839844 C 120.34375 93.011719 120.476562 93.175781 120.621094 93.328125 C 116.710938 95.179688 111.652344 94.652344 111.578125 94.644531 C 111.339844 94.617188 111.113281 94.792969 111.082031 95.039062 C 111.054688 95.285156 111.234375 95.507812 111.480469 95.535156 Z M 143.296875 91.871094 C 142.898438 91.144531 142.839844 90.332031 143.113281 89.464844 C 143.847656 87.144531 145.195312 86.097656 146.125 85.90625 C 146.242188 85.882812 146.351562 85.871094 146.460938 85.871094 C 146.824219 85.871094 147.132812 86.003906 147.355469 86.261719 C 147.929688 86.925781 147.910156 88.261719 147.304688 89.925781 C 146.800781 91.308594 145.878906 92.445312 144.648438 93.265625 C 144.050781 92.882812 143.585938 92.410156 143.296875 91.871094 Z M 132.226562 88.453125 C 133.019531 84.832031 134.828125 82.855469 136.273438 82.507812 C 136.402344 82.476562 136.546875 82.453125 136.695312 82.453125 C 137.015625 82.453125 137.363281 82.554688 137.640625 82.886719 C 138.28125 83.664062 138.429688 85.671875 136.925781 88.984375 C 136.152344 90.675781 134.894531 91.984375 133.414062 92.917969 C 133.277344 92.792969 133.152344 92.664062 133.039062 92.527344 C 132.140625 91.46875 131.871094 90.097656 132.226562 88.453125 Z M 120.492188 89.039062 C 121.160156 86.453125 122.515625 85.285156 123.472656 85.066406 C 123.59375 85.039062 123.710938 85.027344 123.824219 85.027344 C 124.179688 85.027344 124.488281 85.164062 124.710938 85.429688 C 125.328125 86.164062 125.25 87.679688 124.496094 89.484375 C 123.851562 91.019531 122.746094 92.117188 121.445312 92.890625 C 121.261719 92.714844 121.101562 92.527344 120.960938 92.328125 C 120.332031 91.429688 120.171875 90.292969 120.492188 89.039062 Z M 164.476562 82.484375 L 197.9375 82.484375 C 198.1875 82.484375 198.386719 82.285156 198.386719 82.035156 C 198.386719 81.789062 198.1875 81.585938 197.9375 81.585938 L 164.476562 81.585938 C 164.230469 81.585938 164.027344 81.789062 164.027344 82.035156 C 164.027344 82.285156 164.230469 82.484375 164.476562 82.484375 Z M 164.476562 89.125 L 197.9375 89.125 C 198.1875 89.125 198.386719 88.925781 198.386719 88.675781 C 198.386719 88.429688 198.1875 88.226562 197.9375 88.226562 L 164.476562 88.226562 C 164.230469 88.226562 164.027344 88.429688 164.027344 88.675781 C 164.027344 88.925781 164.230469 89.125 164.476562 89.125 Z M 164.476562 95.765625 L 197.9375 95.765625 C 198.1875 95.765625 198.386719 95.566406 198.386719 95.316406 C 198.386719 95.070312 198.1875 94.871094 197.9375 94.871094 L 164.476562 94.871094 C 164.230469 94.871094 164.027344 95.070312 164.027344 95.316406 C 164.027344 95.566406 164.230469 95.765625 164.476562 95.765625 Z M 143.433594 256.144531 C 143.433594 253.105469 144.714844 250.984375 147.347656 250.984375 C 149.511719 250.984375 150.75 252.164062 150.75 254.320312 C 150.75 255.941406 150.273438 257.914062 148.730469 257.914062 C 148.105469 257.914062 147.789062 257.617188 147.699219 257.152344 C 147.460938 257.628906 147.050781 257.914062 146.5625 257.914062 C 145.746094 257.914062 145.394531 257.402344 145.394531 256.609375 C 145.394531 256.507812 145.40625 256.394531 145.417969 256.28125 L 145.566406 254.785156 C 145.667969 253.738281 146.167969 253.285156 146.859375 253.285156 C 147.359375 253.285156 147.699219 253.5 147.890625 253.855469 L 147.9375 253.398438 L 149.035156 253.398438 L 148.695312 256.460938 C 148.683594 256.554688 148.683594 256.5625 148.683594 256.597656 C 148.683594 256.78125 148.765625 256.894531 148.96875 256.894531 C 149.558594 256.894531 149.808594 255.382812 149.808594 254.296875 C 149.808594 252.820312 148.902344 251.949219 147.378906 251.949219 C 145.25 251.949219 144.5 253.761719 144.5 256.257812 C 144.5 258.117188 145.578125 259.105469 147.425781 259.105469 C 148.140625 259.105469 148.777344 258.945312 149.46875 258.4375 L 149.378906 259.523438 C 148.742188 259.921875 148.105469 260.058594 147.402344 260.058594 C 144.910156 260.058594 143.433594 258.664062 143.433594 256.144531 Z M 147.664062 256.078125 L 147.765625 255.078125 L 147.765625 255 C 147.765625 254.535156 147.574219 254.238281 147.1875 254.238281 C 146.824219 254.238281 146.675781 254.546875 146.644531 254.917969 L 146.507812 256.246094 C 146.496094 256.304688 146.496094 256.359375 146.496094 256.40625 C 146.496094 256.734375 146.632812 256.949219 146.984375 256.949219 C 147.3125 256.949219 147.597656 256.710938 147.664062 256.078125 Z M 147.664062 256.078125 " fill-opacity="1" fill-rule="nonzero"/></g></svg>